<svg width="60" height="60" viewBox="0 0 60 60" fill="inherit" xmlns="http://www.w3.org/2000/svg">
  <path fill-rule="evenodd" clip-rule="evenodd"
    d="M29.6621 0.822412C22.1206 0.822412 15.2457 3.73223 10.1014 8.48816V25.2077H16.4934V28.3993H6.87228V12.0073C3.0816 16.8894 0.822367 23.0169 0.822367 29.6622C0.822367 36.3075 3.0816 42.435 6.87228 47.317V29.7738H10.0593V39.1947H13.9949V29.7738H17.1807V51.765H13.9949V41.974H10.0593V50.7972C15.2082 55.5762 22.1 58.5019 29.6621 58.5019C36.6998 58.5019 43.1567 55.9682 48.1685 51.765H43.9825V29.7738H47.1399V48.615H51.3828C55.8141 43.543 58.5019 36.9106 58.5019 29.6622C58.5019 21.4055 55.0144 13.9483 49.4351 8.68604H47.5121V27.7121H44.2828V8.68604H40.5464V5.72085H45.7258C41.1321 2.62862 35.6041 0.822412 29.6621 0.822412ZM29.6621 59.3244C13.3068 59.3244 -4.57764e-05 46.0182 -4.57764e-05 29.6622C-4.57764e-05 13.3062 13.3068 0 29.6621 0C46.0182 0 59.3243 13.3062 59.3243 29.6622C59.3243 46.0182 46.0182 59.3244 29.6621 59.3244ZM21.5598 9.46338C21.148 9.82974 20.9425 10.3976 20.9425 11.1707V22.9482C20.9425 23.7213 21.148 24.2904 21.5598 24.6555C21.9716 25.0219 22.4594 25.2041 23.0224 25.2041C23.5848 25.2041 24.0713 25.0219 24.4844 24.6555C24.8955 24.2904 25.1017 23.7213 25.1017 22.9482V11.1707C25.1017 10.3976 24.8955 9.82974 24.4844 9.46338C24.0713 9.0983 23.5848 8.9148 23.0224 8.9148C22.4594 8.9148 21.9716 9.0983 21.5598 9.46338ZM23.0224 28.3993C22.3988 28.3993 21.7809 28.2838 21.169 28.0541C20.5554 27.8244 20.0034 27.4857 19.5107 27.0372C19.0181 26.5874 18.6217 26.0234 18.3204 25.3452C18.0185 24.6664 17.8679 23.8682 17.8679 22.9482V11.1707C17.8679 10.2737 18.0185 9.47942 18.3204 8.79097C18.6217 8.10059 19.0181 7.53276 19.5107 7.08299C20.0034 6.63386 20.5554 6.29445 21.169 6.06475C21.7809 5.8357 22.3988 5.72085 23.0224 5.72085C23.6441 5.72085 24.2627 5.8357 24.8758 6.06475C25.4888 6.29445 26.0408 6.63386 26.5334 7.08299C27.0255 7.53276 27.4225 8.10059 27.7238 8.79097C28.0257 9.47942 28.1763 10.2737 28.1763 11.1707V22.9482C28.1763 23.8682 28.0257 24.6664 27.7238 25.3452C27.4225 26.0234 27.0255 26.5874 26.5334 27.0372C26.0408 27.4857 25.4888 27.8244 24.8758 28.0541C24.2627 28.2838 23.6441 28.3993 23.0224 28.3993ZM39.0365 15.3581H33.4664V8.68612H39.8591V5.72085H30.238V27.7121H33.4664V18.3234H39.0365V15.3581ZM25.3815 36.1056L23.8462 44.0748H26.9771L25.4431 36.1056H25.3815ZM19.2424 51.765L24.1222 29.7738H26.7319L31.6124 51.765H28.4809L27.5599 47.0402H23.2942L22.3732 51.765H19.2424ZM36.9021 29.7738H33.6741V51.765H43.2953V48.615H36.9021V29.7738Z"
    fill="inherit" />
</svg>