<svg width="24" height="24" viewBox="0 0 24 24" fill="inherit" xmlns="http://www.w3.org/2000/svg">
  <path fill-rule="evenodd" clip-rule="evenodd"
    d="M11.8412 0H11.8471C18.3777 0 23.6883 5.31358 23.6883 11.8442C23.6883 18.3747 18.3777 23.6883 11.8471 23.6883C9.43831 23.6883 7.20421 22.9717 5.33135 21.7311L0.778753 23.1864L2.25483 18.7863C0.835013 16.8365 0 14.4351 0 11.8442C0 5.3121 5.31062 0 11.8412 0ZM16.4145 18.3969C17.3191 18.2015 18.4532 17.5323 18.7389 16.7254C19.0247 15.9171 19.0247 15.2286 18.9418 15.0821C18.8748 14.9658 18.7165 14.8895 18.4802 14.7758C18.4187 14.7461 18.3518 14.714 18.28 14.6779C17.9321 14.5046 16.2398 13.6682 15.92 13.5571C15.6062 13.4387 15.3071 13.4801 15.0702 13.8147C15.0252 13.8778 14.9802 13.941 14.9355 14.0039C14.6497 14.4058 14.3741 14.7935 14.1449 15.0406C13.9361 15.2627 13.5956 15.2908 13.3099 15.1724C13.2787 15.1594 13.243 15.145 13.203 15.1288C12.7506 14.9461 11.7471 14.5408 10.5324 13.4594C9.5079 12.5474 8.81205 11.4118 8.6107 11.0713C8.41301 10.7297 8.58353 10.5294 8.74113 10.3443C8.74405 10.3409 8.74696 10.3374 8.74987 10.334C8.85148 10.2083 8.95009 10.1036 9.04918 9.99841C9.12046 9.92273 9.192 9.84679 9.26509 9.76254C9.27594 9.75004 9.2865 9.7379 9.29678 9.72608C9.45198 9.54763 9.5444 9.44136 9.64855 9.21919C9.76699 8.98971 9.6826 8.75283 9.59821 8.57813C9.54014 8.45578 9.18145 7.58548 8.87354 6.8384C8.74179 6.51874 8.61934 6.22165 8.53371 6.01535C8.30423 5.46608 8.12953 5.44535 7.78161 5.43055C7.77096 5.43001 7.7602 5.42947 7.74933 5.42892C7.63935 5.42335 7.51822 5.41722 7.38483 5.41722C6.93179 5.41722 6.45951 5.55047 6.17377 5.84213C6.16378 5.85233 6.15337 5.86291 6.14257 5.8739C5.77701 6.24567 4.9627 7.07384 4.9627 8.7247C4.9627 10.3788 6.13631 11.9795 6.35347 12.2757C6.35945 12.2839 6.36471 12.291 6.36919 12.2972C6.38226 12.3144 6.40689 12.35 6.44273 12.4019C6.88611 13.044 9.04572 16.1715 12.2661 17.5057C14.9873 18.6338 15.7957 18.5287 16.4145 18.3969Z"
    fill="inherit" />
</svg>